<svg width="16" height="16" viewBox="0 0 16 16" fill="none" xmlns="http://www.w3.org/2000/svg">
<path d="M1 14.5C1 15.3281 1.67188 16 2.5 16H13.5C14.3281 16 15 15.3281 15 14.5V6H1V14.5ZM11 8.375C11 8.16875 11.1687 8 11.375 8H12.625C12.8313 8 13 8.16875 13 8.375V9.625C13 9.83125 12.8313 10 12.625 10H11.375C11.1687 10 11 9.83125 11 9.625V8.375ZM11 12.375C11 12.1687 11.1687 12 11.375 12H12.625C12.8313 12 13 12.1687 13 12.375V13.625C13 13.8313 12.8313 14 12.625 14H11.375C11.1687 14 11 13.8313 11 13.625V12.375ZM7 8.375C7 8.16875 7.16875 8 7.375 8H8.625C8.83125 8 9 8.16875 9 8.375V9.625C9 9.83125 8.83125 10 8.625 10H7.375C7.16875 10 7 9.83125 7 9.625V8.375ZM7 12.375C7 12.1687 7.16875 12 7.375 12H8.625C8.83125 12 9 12.1687 9 12.375V13.625C9 13.8313 8.83125 14 8.625 14H7.375C7.16875 14 7 13.8313 7 13.625V12.375ZM3 8.375C3 8.16875 3.16875 8 3.375 8H4.625C4.83125 8 5 8.16875 5 8.375V9.625C5 9.83125 4.83125 10 4.625 10H3.375C3.16875 10 3 9.83125 3 9.625V8.375ZM3 12.375C3 12.1687 3.16875 12 3.375 12H4.625C4.83125 12 5 12.1687 5 12.375V13.625C5 13.8313 4.83125 14 4.625 14H3.375C3.16875 14 3 13.8313 3 13.625V12.375ZM13.5 2H12V0.5C12 0.225 11.775 0 11.5 0H10.5C10.225 0 10 0.225 10 0.5V2H6V0.5C6 0.225 5.775 0 5.5 0H4.5C4.225 0 4 0.225 4 0.5V2H2.5C1.67188 2 1 2.67188 1 3.5V5H15V3.5C15 2.67188 14.3281 2 13.5 2Z" fill="#FD5725"/>
</svg>
